<svg width="352" height="160" viewBox="0 0 352 160" fill="none" xmlns="http://www.w3.org/2000/svg">
<g clip-path="url(#clip0_266_103)">
<path d="M138.731 104.774C140.729 102.686 142.305 100.289 143.458 97.5822C144.688 94.8753 145.302 91.9368 145.302 88.7662C145.302 85.6727 144.688 82.7339 143.458 79.9499C142.305 77.1659 140.729 74.73 138.731 72.6419C136.656 70.6314 134.196 69.0458 131.352 67.8857C128.585 66.6484 125.626 66.0297 122.475 66.0297C119.324 66.0297 116.365 66.6484 113.598 67.8857C110.831 69.0458 108.448 70.6314 106.45 72.6419C104.375 74.73 102.76 77.1659 101.608 79.9499C100.455 82.7339 99.8782 85.6727 99.8782 88.7662C99.8782 91.9368 100.455 94.9141 101.608 97.6981C102.76 100.405 104.375 102.764 106.45 104.774C108.448 106.862 110.792 108.486 113.482 109.646C116.249 110.806 119.247 111.386 122.475 111.386C125.626 111.386 128.585 110.806 131.352 109.646C134.196 108.486 136.656 106.862 138.731 104.774Z" fill="#FF9D00"/>
<path d="M181.428 75.3125C183.942 75.3125 186.297 75.8086 188.492 76.7998C190.689 77.7556 192.601 79.0656 194.229 80.7295C195.894 82.3932 197.205 84.3227 198.16 86.5176C199.115 88.7123 199.595 91.031 199.595 93.4736C199.595 95.9869 199.115 98.3413 198.16 100.536C197.205 102.731 195.894 104.66 194.229 106.324C192.601 107.953 190.689 109.245 188.492 110.201C186.297 111.157 183.942 111.635 181.428 111.635C178.913 111.635 176.558 111.157 174.362 110.201C172.167 109.245 170.237 107.953 168.572 106.324C166.943 104.661 165.65 102.731 164.694 100.536C163.739 98.3413 163.261 95.9868 163.261 93.4736C163.261 90.9602 163.739 88.6059 164.694 86.4111C165.651 84.2163 166.943 82.3044 168.572 80.6758C170.237 79.0121 172.167 77.7021 174.362 76.7461C176.558 75.7903 178.913 75.3125 181.428 75.3125ZM275.842 75.3125C278.322 75.3125 280.641 75.72 282.801 76.5342C284.963 77.3129 286.857 78.3745 288.485 79.7197C290.114 81.0649 291.388 82.6581 292.31 84.499C293.266 86.3043 293.744 88.234 293.744 90.2871H287.211C287.211 89.0836 286.909 87.9682 286.308 86.9414C285.74 85.8795 284.944 84.9594 283.917 84.1807C282.89 83.4016 281.684 82.7997 280.305 82.375C278.923 81.9147 277.436 81.6846 275.842 81.6846C274.213 81.6846 272.672 82.0034 271.222 82.6406C269.806 83.2423 268.566 84.0747 267.502 85.1367C266.441 86.1987 265.589 87.4548 264.953 88.9062C264.349 90.3223 264.05 91.8451 264.05 93.4736C264.05 95.1019 264.349 96.6422 264.953 98.0938C265.589 99.5099 266.441 100.749 267.502 101.811C268.566 102.873 269.806 103.722 271.222 104.359C272.672 104.961 274.213 105.263 275.842 105.263C277.436 105.263 278.923 105.05 280.305 104.625C281.684 104.165 282.89 103.545 283.917 102.767C284.944 101.988 285.74 101.085 286.308 100.059C286.909 98.9966 287.211 97.8631 287.211 96.6592H293.744C293.744 98.7127 293.266 100.66 292.31 102.501C291.388 104.307 290.114 105.882 288.485 107.228C286.857 108.573 284.963 109.653 282.801 110.467C280.641 111.246 278.322 111.635 275.842 111.635C273.328 111.635 270.972 111.157 268.778 110.201C266.582 109.245 264.651 107.953 262.988 106.324C261.357 104.661 260.067 102.731 259.109 100.536C258.154 98.3413 257.676 95.9869 257.676 93.4736C257.676 90.9602 258.154 88.6059 259.109 86.4111C260.067 84.2163 261.357 82.3043 262.988 80.6758C264.651 79.012 266.582 77.7022 268.778 76.7461C270.972 75.7903 273.328 75.3125 275.842 75.3125ZM314.229 75.3125C316.706 75.3125 319.115 75.7903 321.45 76.7461C323.825 77.6665 325.879 79.0477 327.612 80.8887C329.349 82.694 330.642 84.9242 331.49 87.5791C332.378 90.2339 332.588 93.2611 332.128 96.6592H302.859C302.859 97.509 303.162 98.4297 303.764 99.4209C304.365 100.412 305.179 101.35 306.206 102.235C307.233 103.085 308.421 103.811 309.766 104.413C311.147 104.979 312.634 105.263 314.229 105.263C315.608 105.263 316.9 105.121 318.104 104.838C319.309 104.554 320.355 104.165 321.24 103.67C322.16 103.174 322.868 102.607 323.362 101.97C323.895 101.297 324.161 100.589 324.161 99.8457H331.228C331.228 101.474 330.783 103.015 329.897 104.466C329.012 105.882 327.791 107.121 326.23 108.183C324.71 109.245 322.903 110.077 320.814 110.679C318.76 111.316 316.564 111.635 314.229 111.635C311.712 111.635 309.358 111.157 307.162 110.201C304.966 109.245 303.036 107.953 301.373 106.324C299.744 104.66 298.449 102.731 297.495 100.536C296.536 98.3413 296.062 95.9868 296.062 93.4736C296.062 90.9602 296.536 88.6059 297.495 86.4111C298.449 84.2162 299.744 82.3044 301.373 80.6758C303.036 79.0122 304.966 77.7021 307.162 76.7461C309.358 75.7903 311.712 75.3125 314.229 75.3125ZM220.949 66.3926C220.063 66.3926 219.231 66.5524 218.452 66.8711C217.708 67.1895 217.036 67.6318 216.435 68.1982C215.867 68.7291 215.405 69.367 215.052 70.1104C214.734 70.8184 214.573 71.597 214.573 72.4463V76.2695H220.949V82.6426H214.573V110.681H208.2V82.6426H201.825V76.2695H208.2V72.4463C208.2 70.7116 208.536 69.1011 209.209 67.6143C209.882 66.092 210.786 64.782 211.918 63.6846C213.087 62.5517 214.433 61.6664 215.956 61.0293C217.513 60.3566 219.178 60.0205 220.949 60.0205V66.3926ZM242.218 66.3926C241.332 66.3926 240.5 66.5525 239.722 66.8711C238.977 67.1895 238.305 67.6317 237.703 68.1982C237.135 68.7291 236.675 69.367 236.321 70.1104C236.004 70.8184 235.843 71.5969 235.843 72.4463V76.2695H242.218V82.6426H235.843V110.681H229.469V82.6426H223.094V76.2695H229.469V72.4463C229.469 70.7115 229.805 69.1012 230.479 67.6143C231.152 66.0921 232.054 64.7819 233.187 63.6846C234.356 62.5517 235.701 61.6664 237.225 61.0293C238.782 60.3565 240.446 60.0205 242.218 60.0205V66.3926ZM254.987 110.677H248.612V76.2666H254.987V110.677ZM181.428 81.6846C179.799 81.6846 178.258 82.0034 176.807 82.6406C175.39 83.2423 174.15 84.0747 173.088 85.1367C172.025 86.1986 171.175 87.4549 170.538 88.9062C169.936 90.3223 169.635 91.8451 169.635 93.4736C169.635 95.102 169.936 96.6422 170.538 98.0938C171.175 99.5098 172.025 100.749 173.088 101.811C174.15 102.873 175.39 103.722 176.807 104.359C178.258 104.961 179.799 105.263 181.428 105.263C183.056 105.263 184.58 104.961 185.996 104.359C187.448 103.722 188.705 102.872 189.768 101.811C190.83 100.749 191.662 99.5097 192.264 98.0938C192.901 96.6422 193.221 95.102 193.221 93.4736C193.221 91.8451 192.901 90.3223 192.264 88.9062C191.662 87.455 190.83 86.1986 189.768 85.1367C188.705 84.0747 187.448 83.2423 185.996 82.6406C184.58 82.0033 183.056 81.6846 181.428 81.6846ZM314.229 81.6846C312.634 81.6846 311.181 82.0033 309.873 82.6406C308.562 83.2423 307.412 83.9859 306.419 84.8711C305.426 85.7561 304.611 86.6944 303.976 87.6855C303.374 88.6765 303.001 89.5439 302.859 90.2871H325.595C325.416 89.5439 325.027 88.6766 324.426 87.6855C323.824 86.6945 323.029 85.756 322.036 84.8711C321.043 83.9858 319.895 83.2423 318.584 82.6406C317.273 82.0033 315.82 81.6846 314.229 81.6846ZM251.8 66.0703C252.614 66.0703 253.341 66.4067 253.977 67.0791C254.65 67.7165 254.987 68.4427 254.987 69.2568C254.987 70.0711 254.65 70.8146 253.977 71.4873C253.341 72.1243 252.614 72.4434 251.8 72.4434C250.986 72.4433 250.241 72.1244 249.569 71.4873C248.932 70.8146 248.612 70.0711 248.612 69.2568C248.612 68.4427 248.932 67.7165 249.569 67.0791C250.241 66.4067 250.986 66.0704 251.8 66.0703ZM333.843 9.29297C335.471 9.29297 336.888 9.4358 338.091 9.7207C339.328 10.0056 340.408 10.3617 341.327 10.7891C342.283 11.2164 343.098 11.6973 343.771 12.2314C344.48 12.7299 345.099 13.211 345.627 13.6738V10.2549H352V42.9473C352 45.1198 351.522 47.2923 350.565 49.4648C349.609 51.637 348.301 53.5959 346.639 55.3408C345.01 57.0858 343.098 58.4923 340.904 59.5605C338.711 60.6648 336.354 61.2168 333.843 61.2168C331.329 61.2168 328.976 60.8425 326.782 60.0947C324.586 59.3469 322.658 58.2602 320.995 56.8359C319.367 55.4115 318.074 53.6841 317.118 51.6543C316.165 49.6599 315.687 47.3988 315.687 44.8701H322.057C322.057 46.5084 322.358 47.9509 322.96 49.1973C323.596 50.4436 324.447 51.4768 325.508 52.2959C326.569 53.1148 327.81 53.738 329.226 54.165C330.675 54.5925 332.214 54.8066 333.843 54.8066C335.471 54.8066 336.992 54.4677 338.408 53.791C339.861 53.1144 341.117 52.2068 342.178 51.0674C343.239 49.9634 344.072 48.6989 344.674 47.2744C345.31 45.8856 345.627 44.4431 345.627 42.9473V41.4512C345.17 41.9141 344.603 42.4133 343.931 42.9473C343.258 43.4461 342.443 43.9087 341.487 44.3359C340.531 44.7632 339.417 45.1195 338.144 45.4043C336.906 45.6891 335.471 45.832 333.843 45.832C331.329 45.832 328.976 45.3514 326.782 44.3896C324.586 43.4284 322.658 42.1285 320.995 40.4902C319.366 38.8165 318.074 36.875 317.118 34.667C316.165 32.459 315.687 30.091 315.687 27.5625C315.687 25.0341 316.165 22.666 317.118 20.458C318.074 18.25 319.367 16.3267 320.995 14.6885C322.658 13.0147 324.586 11.6969 326.782 10.7354C328.976 9.77387 331.329 9.29302 333.843 9.29297ZM181.419 9.29297C183.046 9.29298 184.462 9.43584 185.665 9.7207C186.904 10.0056 187.984 10.3617 188.903 10.7891C189.86 11.2164 190.673 11.6973 191.346 12.2314C192.053 12.73 192.673 13.2109 193.205 13.6738V10.2549H199.575V44.8701H193.205V41.4512C192.957 41.736 192.496 42.1283 191.824 42.627C191.187 43.0898 190.355 43.5708 189.328 44.0693C188.337 44.5323 187.169 44.9417 185.824 45.2979C184.515 45.6538 183.046 45.832 181.419 45.832C178.905 45.832 176.551 45.3515 174.356 44.3896C172.162 43.4283 170.233 42.1285 168.569 40.4902C166.941 38.8165 165.65 36.875 164.694 34.667C163.738 32.4591 163.261 30.0909 163.261 27.5625C163.261 25.0342 163.739 22.666 164.694 20.458C165.65 18.2501 166.941 16.3266 168.569 14.6885C170.233 13.0147 172.162 11.6969 174.356 10.7354C176.551 9.7738 178.905 9.29297 181.419 9.29297ZM221.342 9.29297C223.821 9.29297 226.139 9.70239 228.298 10.5215C230.456 11.3049 232.349 12.3734 233.978 13.7266C235.606 15.0798 236.88 16.6823 237.802 18.5342C238.757 20.3504 239.233 22.2918 239.233 24.3574H232.705C232.705 23.1465 232.403 22.0249 231.801 20.9922C231.235 19.9237 230.439 18.9972 229.412 18.2139C228.387 17.4303 227.183 16.8248 225.803 16.3975C224.422 15.9345 222.935 15.7031 221.342 15.7031C219.715 15.7031 218.175 16.024 216.724 16.665C215.308 17.2705 214.068 18.1074 213.008 19.1758C211.945 20.2442 211.097 21.5086 210.459 22.9688C209.857 24.3932 209.556 25.9245 209.556 27.5625C209.556 29.2007 209.857 30.7498 210.459 32.21C211.097 33.6345 211.945 34.8809 213.008 35.9492C214.068 37.0175 215.308 37.8726 216.724 38.5137C218.175 39.119 219.715 39.4219 221.342 39.4219C222.935 39.4219 224.422 39.2075 225.803 38.7803C227.183 38.3173 228.387 37.6946 229.412 36.9111C230.439 36.1277 231.235 35.2191 231.801 34.1865C232.403 33.1182 232.705 31.9783 232.705 30.7676H239.233C239.233 32.8331 238.757 34.7918 237.802 36.6436C236.88 38.4599 235.606 40.0453 233.978 41.3984C232.349 42.7516 230.456 43.8372 228.298 44.6562C226.139 45.4397 223.821 45.832 221.342 45.832C218.829 45.832 216.476 45.3514 214.281 44.3896C212.088 43.4284 210.158 42.1284 208.495 40.4902C206.866 38.8165 205.576 36.875 204.62 34.667C203.663 32.459 203.186 30.091 203.186 27.5625C203.186 25.0341 203.663 22.666 204.62 20.458C205.576 18.25 206.866 16.3267 208.495 14.6885C210.158 13.0147 212.088 11.6969 214.281 10.7354C216.476 9.7739 218.829 9.29298 221.342 9.29297ZM272.151 44.8721H265.778V10.2568H272.151V44.8721ZM294.481 9.29297C296.465 9.29297 298.461 9.56059 300.479 10.0947C302.499 10.6289 304.356 11.5725 306.056 12.9258C307.753 14.279 309.188 16.1482 310.356 18.5342C311.56 20.8847 312.321 23.8943 312.639 27.5625V44.8701H306.269V27.5625C306.161 25.3545 305.667 23.3778 304.779 21.6328C304.391 20.885 303.915 20.1726 303.348 19.4961C302.783 18.7837 302.092 18.143 301.277 17.5732C300.463 17.0034 299.489 16.5578 298.356 16.2373C297.261 15.8812 295.968 15.7031 294.481 15.7031C292.995 15.7032 291.684 15.8812 290.552 16.2373C289.454 16.5578 288.501 17.0035 287.687 17.5732C286.872 18.143 286.162 18.7837 285.561 19.4961C284.996 20.1726 284.534 20.885 284.182 21.6328C283.296 23.3777 282.8 25.3545 282.695 27.5625V44.8701H276.325V10.2549H282.695V13.1387C283.475 12.4266 284.447 11.7855 285.616 11.2158C286.607 10.7173 287.828 10.2726 289.278 9.88086C290.731 9.48921 292.464 9.29299 294.481 9.29297ZM253.019 10.2539H259.388V16.6641H253.019V44.8691H246.646V16.6641H240.275V10.2539H246.646V2.56152H253.019V10.2539ZM181.419 15.7031C179.931 15.7031 178.48 16.0421 177.064 16.7188C175.684 17.3954 174.428 18.3029 173.295 19.4424C172.198 20.5463 171.313 21.8111 170.641 23.2354C169.968 24.6244 169.632 26.0668 169.632 27.5625C169.632 29.058 169.968 30.5179 170.641 31.9424C171.313 33.3312 172.198 34.5957 173.295 35.7354C174.428 36.8394 175.684 37.7305 177.064 38.4072C178.48 39.0835 179.932 39.4219 181.419 39.4219C182.905 39.4218 184.338 39.0836 185.719 38.4072C187.133 37.7305 188.391 36.8394 189.487 35.7354C190.621 34.5958 191.523 33.3311 192.196 31.9424C192.868 30.518 193.205 29.0579 193.205 27.5625C193.205 26.0669 192.868 24.6243 192.196 23.2354C191.523 21.811 190.621 20.5463 189.487 19.4424C188.391 18.3028 187.133 17.3954 185.719 16.7188C184.338 16.0421 182.905 15.7032 181.419 15.7031ZM333.843 15.7031C332.356 15.7032 330.904 16.0422 329.488 16.7188C328.109 17.3954 326.853 18.3028 325.721 19.4424C324.623 20.5463 323.738 21.811 323.065 23.2354C322.393 24.6244 322.057 26.0668 322.057 27.5625C322.057 29.058 322.393 30.5179 323.065 31.9424C323.738 33.3312 324.623 34.5957 325.721 35.7354C326.853 36.8394 328.109 37.7305 329.488 38.4072C330.904 39.0834 332.356 39.4218 333.843 39.4219C335.33 39.4219 336.762 39.0837 338.144 38.4072C339.559 37.7305 340.815 36.8394 341.913 35.7354C343.045 34.5957 343.948 33.3312 344.618 31.9424C345.293 30.5179 345.627 29.058 345.627 27.5625C345.627 26.0668 345.293 24.6244 344.618 23.2354C343.948 21.8111 343.045 20.5463 341.913 19.4424C340.815 18.3029 339.559 17.3954 338.144 16.7188C336.762 16.0421 335.33 15.7031 333.843 15.7031ZM268.965 0C269.779 0 270.504 0.338131 271.143 1.01465C271.815 1.65566 272.151 2.38602 272.151 3.20508C272.151 4.02417 271.815 4.77258 271.143 5.44922C270.504 6.09008 269.779 6.41016 268.965 6.41016C268.151 6.41013 267.407 6.0901 266.737 5.44922C266.099 4.77258 265.778 4.02417 265.778 3.20508C265.778 2.38602 266.099 1.65566 266.737 1.01465C267.407 0.338119 268.151 2.82411e-05 268.965 0Z" fill="white"/>
<path d="M46.4512 139.508C47.7082 139.508 48.8132 139.794 49.7656 140.364C50.7369 140.935 51.4893 141.724 52.0225 142.732C52.5747 143.74 52.8515 144.881 52.8516 146.155C52.8516 146.345 52.8414 146.555 52.8223 146.783C52.8031 146.993 52.7653 147.24 52.708 147.525H42.0811C42.1716 148.053 42.3324 148.538 42.5654 148.98C42.9463 149.684 43.4887 150.236 44.1934 150.635C44.8984 151.015 45.7077 151.205 46.6221 151.205C47.3841 151.205 48.0794 151.072 48.708 150.806C49.3557 150.539 49.9082 150.14 50.3652 149.607L52.0225 151.291C51.3749 152.052 50.5743 152.632 49.6221 153.031C48.6886 153.431 47.6885 153.631 46.6221 153.631C45.2699 153.631 44.0507 153.326 42.9648 152.718C41.8793 152.09 41.0221 151.244 40.3936 150.179C39.7649 149.114 39.4512 147.905 39.4512 146.555C39.4512 145.223 39.7558 144.025 40.3652 142.96C40.9938 141.895 41.8315 141.058 42.8789 140.449C43.9457 139.822 45.137 139.508 46.4512 139.508ZM68.1895 139.508C69.2371 139.508 70.2084 139.708 71.1035 140.107C71.9987 140.488 72.7705 141.049 73.418 141.791L71.7031 143.502C71.2843 143.008 70.7702 142.637 70.1611 142.39C69.5705 142.123 68.9132 141.99 68.1895 141.99C67.3323 141.99 66.57 142.19 65.9033 142.59C65.2369 142.97 64.7129 143.502 64.332 144.187C63.9512 144.871 63.7608 145.661 63.7607 146.555C63.7607 147.449 63.9511 148.238 64.332 148.923C64.7129 149.608 65.2367 150.149 65.9033 150.549C66.57 150.948 67.3323 151.148 68.1895 151.148C68.9132 151.148 69.5705 151.024 70.1611 150.777C70.7704 150.511 71.2944 150.13 71.7324 149.636L73.418 151.349C72.7894 152.071 72.0178 152.632 71.1035 153.031C70.2084 153.431 69.2371 153.631 68.1895 153.631C66.8561 153.631 65.6462 153.317 64.5605 152.689C63.4938 152.062 62.6462 151.215 62.0176 150.149C61.4082 149.065 61.1035 147.867 61.1035 146.555C61.1036 145.223 61.4082 144.025 62.0176 142.96C62.6462 141.895 63.4939 141.058 64.5605 140.449C65.6462 139.822 66.8561 139.508 68.1895 139.508ZM81.917 139.508C83.2313 139.508 84.4219 139.822 85.4883 140.449C86.5742 141.058 87.4319 141.895 88.0605 142.96C88.6891 144.025 89.0029 145.214 89.0029 146.526C89.0029 147.858 88.689 149.065 88.0605 150.149C87.4319 151.215 86.5742 152.062 85.4883 152.689C84.4219 153.317 83.2313 153.631 81.917 153.631C80.5838 153.631 79.384 153.317 78.3174 152.689C77.2509 152.062 76.403 151.215 75.7744 150.149C75.1458 149.065 74.8311 147.858 74.8311 146.526C74.8311 145.214 75.1459 144.035 75.7744 142.989C76.403 141.924 77.2509 141.077 78.3174 140.449C79.384 139.822 80.5838 139.508 81.917 139.508ZM122.457 139.508C123.714 139.508 124.819 139.794 125.771 140.364C126.743 140.935 127.496 141.724 128.029 142.732C128.581 143.74 128.857 144.881 128.857 146.155C128.857 146.345 128.848 146.555 128.829 146.783C128.81 146.993 128.772 147.24 128.715 147.525H118.087C118.177 148.053 118.338 148.538 118.571 148.98C118.952 149.684 119.495 150.236 120.2 150.635C120.905 151.015 121.715 151.205 122.629 151.205C123.391 151.205 124.086 151.072 124.715 150.806C125.362 150.539 125.915 150.14 126.372 149.607L128.029 151.291C127.382 152.052 126.581 152.632 125.629 153.031C124.696 153.431 123.696 153.631 122.629 153.631C121.277 153.631 120.057 153.326 118.972 152.718C117.886 152.09 117.028 151.244 116.399 150.179C115.771 149.114 115.457 147.905 115.457 146.555C115.457 145.223 115.761 144.025 116.371 142.96C117 141.895 117.838 141.058 118.886 140.449C119.952 139.822 121.143 139.508 122.457 139.508ZM153.906 139.508C155.22 139.508 156.411 139.822 157.478 140.449C158.563 141.058 159.42 141.895 160.049 142.96C160.677 144.025 160.992 145.214 160.992 146.526C160.992 147.858 160.677 149.065 160.049 150.149C159.42 151.215 158.563 152.062 157.478 152.689C156.411 153.317 155.22 153.631 153.906 153.631C152.573 153.631 151.372 153.317 150.306 152.689C149.239 152.062 148.391 151.215 147.763 150.149C147.134 149.065 146.82 147.858 146.82 146.526C146.82 145.214 147.134 144.035 147.763 142.989C148.391 141.924 149.239 141.077 150.306 140.449C151.372 139.822 152.573 139.508 153.906 139.508ZM202.119 139.508C203.376 139.508 204.482 139.794 205.434 140.364C206.405 140.935 207.159 141.724 207.691 142.732C208.245 143.74 208.519 144.881 208.52 146.155C208.52 146.345 208.511 146.555 208.491 146.783C208.473 146.993 208.434 147.24 208.377 147.525H197.75C197.841 148.053 198.001 148.538 198.233 148.98C198.616 149.684 199.159 150.236 199.862 150.635C200.568 151.015 201.377 151.205 202.291 151.205C203.053 151.205 203.748 151.072 204.377 150.806C205.025 150.539 205.577 150.14 206.034 149.607L207.691 151.291C207.045 152.052 206.245 152.632 205.291 153.031C204.359 153.431 203.359 153.631 202.291 153.631C200.939 153.631 199.719 153.326 198.634 152.718C197.548 152.09 196.691 151.244 196.062 150.179C195.434 149.114 195.119 147.905 195.119 146.555C195.119 145.223 195.424 144.025 196.033 142.96C196.662 141.895 197.501 141.058 198.548 140.449C199.616 139.822 200.805 139.508 202.119 139.508ZM142.263 139.796H145.605V142.136H142.263V153.348H139.69V142.136H136.348V139.796H139.69V134.119H142.263V139.796ZM174.49 139.796H177.833V142.136H174.49V153.348H171.918V142.136H168.575V139.796H171.918V134.119H174.49V139.796ZM58.2266 153.347H55.6553V132.977H58.2266V153.347ZM182.924 141.547C183.335 141.008 183.849 140.567 184.467 140.223C185.284 139.747 186.21 139.51 187.238 139.51C188.267 139.51 189.171 139.738 189.953 140.194C190.753 140.651 191.382 141.288 191.839 142.105C192.296 142.923 192.524 143.866 192.524 144.931V153.347H189.953V145.444C189.953 144.417 189.628 143.571 188.981 142.905C188.333 142.24 187.496 141.906 186.468 141.906C185.782 141.906 185.171 142.058 184.639 142.362C184.105 142.667 183.685 143.086 183.381 143.618C183.076 144.151 182.924 144.76 182.924 145.444V153.347H180.353V132.977H182.924V141.547ZM20.8545 148.471L25.5303 133.545H27.4727L32.1611 148.516L36.9307 133.545H39.5879L33.1299 153.345H31.2158L26.502 138.406L21.8154 153.345H19.9014L13.415 133.545H16.1016L20.8545 148.471ZM107.615 139.508C108.606 139.508 109.492 139.717 110.272 140.136C111.053 140.554 111.673 141.144 112.13 141.904C112.606 142.665 112.844 143.578 112.844 144.644V153.345H110.244V145.157C110.244 144.149 109.929 143.36 109.301 142.789C108.691 142.199 107.93 141.904 107.016 141.904C106.387 141.904 105.815 142.037 105.301 142.304C104.806 142.57 104.406 142.941 104.101 143.417C103.796 143.892 103.644 144.463 103.644 145.129V153.345H101.072V145.157C101.072 144.149 100.758 143.36 100.129 142.789C99.5196 142.199 98.7484 141.904 97.8154 141.904C97.1868 141.904 96.6241 142.037 96.1289 142.304C95.6336 142.57 95.2336 142.941 94.9287 143.417C94.6241 143.892 94.4717 144.463 94.4717 145.129V153.345H91.9004V139.794H94.4717V141.363C94.8704 140.872 95.3555 140.471 95.9287 140.164C96.7096 139.726 97.5863 139.508 98.5576 139.508C99.5097 139.508 100.367 139.717 101.129 140.136C101.91 140.554 102.52 141.144 102.958 141.904C102.97 141.925 102.981 141.947 102.993 141.968C103.001 141.956 103.008 141.944 103.016 141.933C103.53 141.172 104.187 140.582 104.986 140.164C105.786 139.726 106.663 139.508 107.615 139.508ZM81.917 141.99C81.0599 141.99 80.2982 142.19 79.6318 142.59C78.9652 142.97 78.4405 143.502 78.0596 144.187C77.6787 144.871 77.4883 145.652 77.4883 146.526C77.4883 147.42 77.6787 148.219 78.0596 148.923C78.4405 149.608 78.9651 150.149 79.6318 150.549C80.2982 150.948 81.0599 151.148 81.917 151.148C82.7741 151.148 83.5364 150.948 84.2031 150.549C84.8694 150.149 85.3936 149.608 85.7744 148.923C86.1553 148.219 86.3457 147.42 86.3457 146.526C86.3457 145.652 86.1462 144.871 85.7461 144.187C85.3652 143.502 84.8405 142.97 84.1738 142.59C83.5261 142.19 82.7741 141.99 81.917 141.99ZM153.906 141.99C153.049 141.99 152.287 142.19 151.62 142.59C150.954 142.97 150.43 143.502 150.049 144.187C149.668 144.871 149.478 145.652 149.478 146.526C149.478 147.42 149.668 148.219 150.049 148.923C150.43 149.608 150.954 150.149 151.62 150.549C152.287 150.948 153.049 151.148 153.906 151.148C154.763 151.148 155.525 150.948 156.191 150.549C156.858 150.149 157.382 149.608 157.763 148.923C158.144 148.219 158.334 147.42 158.334 146.526C158.334 145.652 158.134 144.871 157.734 144.187C157.354 143.502 156.83 142.97 156.163 142.59C155.515 142.19 154.763 141.99 153.906 141.99ZM46.3936 141.876C45.5173 141.876 44.7457 142.066 44.0791 142.446C43.4127 142.827 42.8981 143.359 42.5361 144.044C42.3226 144.448 42.1745 144.896 42.0869 145.386H50.3428C50.2726 144.825 50.1289 144.33 49.9082 143.902C49.5843 143.256 49.1276 142.76 48.5371 142.418C47.9463 142.057 47.2315 141.876 46.3936 141.876ZM122.4 141.876C121.524 141.876 120.752 142.066 120.086 142.446C119.419 142.827 118.905 143.36 118.543 144.044C118.329 144.448 118.18 144.896 118.093 145.386H126.35C126.279 144.825 126.136 144.33 125.915 143.902C125.591 143.256 125.133 142.76 124.543 142.418C123.953 142.057 123.238 141.876 122.4 141.876ZM202.062 141.876C201.188 141.876 200.416 142.066 199.748 142.446C199.082 142.827 198.568 143.36 198.205 144.044C197.992 144.448 197.844 144.896 197.756 145.386H206.012C205.942 144.825 205.799 144.33 205.577 143.902C205.254 143.256 204.796 142.76 204.205 142.418C203.616 142.057 202.902 141.876 202.062 141.876Z" fill="#FBFDFF"/>
<path d="M323.226 128.387C326.186 128.387 328.584 130.781 328.584 133.735V153.35C328.584 156.304 326.186 158.699 323.226 158.699H223.223C220.263 158.699 217.865 156.304 217.865 153.35V133.735C217.865 130.781 220.264 128.387 223.223 128.387H323.226ZM54.0156 4.4668C65.7493 4.4668 76.6087 8.20293 85.4668 14.5479V5.20215H117.179V61.3496C115.238 61.7265 113.363 62.3201 111.557 63.1279C108.171 64.5474 105.254 66.4876 102.809 68.9482C100.269 71.504 98.2925 74.4852 96.8818 77.8926C95.471 81.2999 94.7657 84.8968 94.7656 88.6826C94.7656 92.5632 95.471 96.2075 96.8818 99.6152C98.2925 102.928 100.269 105.815 102.809 108.275C104 109.521 105.292 110.631 106.685 111.606H85.4668V102.257C76.6087 108.602 65.7493 112.338 54.0156 112.338C24.1837 112.338 0 88.1899 0 58.4023C0.00013559 28.6147 24.1838 4.46684 54.0156 4.4668ZM54.0156 28.2275C37.3257 28.2276 23.7951 41.7373 23.7949 58.4023C23.7949 75.068 37.3256 88.5781 54.0156 88.5781C70.7062 88.5781 84.2363 75.0681 84.2363 58.4023C84.2362 41.7373 70.7061 28.2275 54.0156 28.2275Z" fill="#0194FF"/>
<path d="M252.448 147.555C252.448 148.296 252.574 148.944 252.82 149.495C253.088 150.027 253.468 150.436 253.963 150.722C254.459 151.007 255.04 151.15 255.706 151.15C256.717 151.15 257.506 150.836 258.077 150.209C258.649 149.562 258.935 148.677 258.935 147.555V139.795H261.506V147.669C261.506 148.848 261.26 149.885 260.764 150.779C260.269 151.673 259.583 152.377 258.706 152.891C257.849 153.385 256.849 153.632 255.706 153.632C254.583 153.632 253.573 153.385 252.677 152.891C251.802 152.377 251.117 151.673 250.62 150.779C250.125 149.885 249.877 148.848 249.877 147.669V139.795H252.448V147.555ZM277.702 147.555C277.702 148.296 277.823 148.944 278.072 149.495C278.338 150.027 278.721 150.436 279.215 150.722C279.709 151.007 280.292 151.15 280.957 151.15C281.968 151.15 282.759 150.837 283.329 150.209C283.902 149.562 284.188 148.677 284.188 147.555V139.795H286.76V147.669C286.76 148.848 286.509 149.885 286.016 150.779C285.519 151.673 284.834 152.377 283.959 152.891C283.1 153.385 282.102 153.632 280.957 153.632C279.835 153.632 278.824 153.385 277.931 152.891C277.053 152.377 276.368 151.673 275.871 150.779C275.377 149.885 275.131 148.848 275.131 147.669V139.795H277.702V147.555ZM307.341 139.508C308.599 139.508 309.705 139.794 310.656 140.364C311.628 140.935 312.379 141.724 312.912 142.732C313.464 143.74 313.742 144.881 313.742 146.155C313.742 146.345 313.732 146.555 313.714 146.783C313.693 146.993 313.655 147.24 313.598 147.525H302.973C303.063 148.053 303.222 148.538 303.455 148.98C303.836 149.684 304.38 150.236 305.084 150.635C305.791 151.015 306.6 151.205 307.514 151.205C308.275 151.205 308.969 151.072 309.6 150.806C310.246 150.539 310.798 150.14 311.255 149.607L312.912 151.291C312.266 152.052 311.465 152.632 310.514 153.031C309.579 153.431 308.577 153.631 307.514 153.631C306.161 153.631 304.942 153.326 303.854 152.718C302.77 152.09 301.914 151.244 301.283 150.179C300.655 149.114 300.34 147.905 300.34 146.555C300.34 145.223 300.647 144.025 301.257 142.96C301.885 141.895 302.722 141.058 303.771 140.449C304.837 139.822 306.027 139.508 307.341 139.508ZM269.611 139.796H272.955V142.136H269.611V153.348H267.039V142.136H263.698V139.796H267.039V134.119H269.611V139.796ZM247.151 133.545V135.999H237.18V142.189H246.666V144.644H237.18V153.345H234.494V133.545H247.151ZM296.463 139.508C297.149 139.508 297.769 139.632 298.32 139.879C298.875 140.107 299.387 140.497 299.862 141.049L298.179 142.789C297.892 142.485 297.577 142.266 297.235 142.133C296.891 142 296.492 141.933 296.035 141.933C295.082 141.933 294.301 142.237 293.691 142.846C293.082 143.454 292.777 144.377 292.777 145.613V153.345H290.206V139.794H292.777V141.37C292.85 141.26 292.925 141.152 293.006 141.049C293.804 140.022 294.958 139.508 296.463 139.508ZM307.285 141.876C306.408 141.876 305.636 142.066 304.972 142.446C304.305 142.827 303.789 143.36 303.427 144.044C303.213 144.448 303.064 144.896 302.978 145.386H311.233C311.164 144.825 311.02 144.33 310.798 143.902C310.475 143.256 310.018 142.76 309.427 142.418C308.836 142.057 308.12 141.876 307.285 141.876Z" fill="white"/>
</g>
<defs>
<clipPath id="clip0_266_103">
<rect width="352" height="160" fill="white"/>
</clipPath>
</defs>
</svg>
